<svg width="73" height="73" viewBox="0 0 73 73" fill="none" xmlns="http://www.w3.org/2000/svg">
<g clip-path="url(#clip0_4805_16203)">
<path d="M0.015625 36.5C0.015625 16.6178 16.1334 0.5 36.0156 0.5C55.8979 0.5 72.0156 16.6178 72.0156 36.5C72.0156 56.3823 55.8979 72.5 36.0156 72.5C16.1334 72.5 0.015625 56.3823 0.015625 36.5Z" fill="#DEE8F7"/>
<circle cx="36.0156" cy="70.21" r="23.2861" fill="white"/>
<circle cx="36.0156" cy="33.533" r="17.958" fill="white"/>
<circle cx="36.0157" cy="34.9088" r="11.21" fill="#DEE8F7"/>
<path d="M41.2199 33.7374C41.776 33.7374 42.2475 33.5427 42.6344 33.1533C43.0212 32.7642 43.2146 32.2917 43.2146 31.7357C43.2146 31.1798 43.0201 30.7084 42.6309 30.3216C42.2418 29.9345 41.7692 29.741 41.213 29.741C40.6571 29.741 40.1857 29.9357 39.7989 30.3251C39.412 30.7142 39.2186 31.1867 39.2186 31.7426C39.2186 32.2985 39.4132 32.7699 39.8023 33.1567C40.1914 33.5438 40.6639 33.7374 41.2199 33.7374ZM30.8183 33.7374C31.3742 33.7374 31.8456 33.5427 32.2324 33.1533C32.6192 32.7642 32.8126 32.2917 32.8126 31.7357C32.8126 31.1798 32.6181 30.7084 32.229 30.3216C31.8398 29.9345 31.3673 29.741 30.8114 29.741C30.2552 29.741 29.7837 29.9357 29.3969 30.3251C29.0101 30.7142 28.8166 31.1867 28.8166 31.7426C28.8166 32.2985 29.0112 32.7699 29.4003 33.1567C29.7894 33.5438 30.2621 33.7374 30.8183 33.7374ZM36.0156 43.4926C37.6101 43.4926 39.0675 43.0465 40.3879 42.1541C41.7083 41.2618 42.6819 40.0821 43.3086 38.615H41.2871C40.7268 39.5572 39.982 40.3021 39.0524 40.8496C38.1229 41.3972 37.1107 41.6709 36.0156 41.6709C34.9206 41.6709 33.9083 41.3972 32.9788 40.8496C32.0493 40.3021 31.3044 39.5572 30.7442 38.615H28.7227C29.3494 40.0821 30.323 41.2618 31.6434 42.1541C32.9638 43.0465 34.4212 43.4926 36.0156 43.4926ZM36.0183 50.0747C34.0106 50.0747 32.1234 49.6937 30.3568 48.9318C28.5902 48.1698 27.0536 47.1358 25.747 45.8296C24.4403 44.5235 23.4057 42.9875 22.6433 41.2217C21.8811 39.4559 21.5 37.5692 21.5 35.5618C21.5 33.554 21.881 31.6669 22.6429 29.9003C23.4049 28.1337 24.4389 26.5971 25.7451 25.2904C27.0512 23.9838 28.5872 22.9492 30.353 22.1868C32.1188 21.4246 34.0055 21.0435 36.0129 21.0435C38.0207 21.0435 39.9079 21.4244 41.6744 22.1864C43.441 22.9483 44.9776 23.9824 46.2843 25.2885C47.5909 26.5947 48.6255 28.1306 49.388 29.8965C50.1502 31.6623 50.5312 33.5489 50.5312 35.5564C50.5312 37.5641 50.1503 39.4513 49.3883 41.2179C48.6264 42.9845 47.5923 44.5211 46.2862 45.8277C44.98 47.1344 43.4441 48.169 41.6782 48.9314C39.9124 49.6936 38.0258 50.0747 36.0183 50.0747Z" fill="white"/>
</g>
<path d="M36.0156 1C55.6217 1 71.5156 16.8939 71.5156 36.5C71.5156 56.1061 55.6217 72 36.0156 72C16.4095 72 0.515625 56.1061 0.515625 36.5C0.515625 16.8939 16.4095 1 36.0156 1Z" stroke="#CCD7E5"/>
<defs>
<clipPath id="clip0_4805_16203">
<path d="M0.015625 36.5C0.015625 16.6178 16.1334 0.5 36.0156 0.5C55.8979 0.5 72.0156 16.6178 72.0156 36.5C72.0156 56.3823 55.8979 72.5 36.0156 72.5C16.1334 72.5 0.015625 56.3823 0.015625 36.5Z" fill="white"/>
</clipPath>
</defs>
</svg>
