<svg width="24" height="25" viewBox="0 0 24 25" fill="none" xmlns="http://www.w3.org/2000/svg">
<path d="M11.25 16.0384H12.7595V11.4827L14.6095 13.3327L15.6538 12.2884L12.0095 8.64419L8.35575 12.2884L9.4 13.3327L11.25 11.4827V16.0384ZM12.0017 21.8462C10.6877 21.8462 9.45267 21.5969 8.2965 21.0982C7.14033 20.5995 6.13467 19.9228 5.2795 19.0679C4.42433 18.2131 3.74725 17.2079 3.24825 16.0522C2.74942 14.8965 2.5 13.6618 2.5 12.3479C2.5 11.0339 2.74933 9.79886 3.248 8.64269C3.74667 7.48652 4.42342 6.48086 5.27825 5.62569C6.13308 4.77052 7.13833 4.09344 8.294 3.59444C9.44967 3.09561 10.6844 2.84619 11.9983 2.84619C13.3123 2.84619 14.5473 3.09552 15.7035 3.59419C16.8597 4.09286 17.8653 4.76961 18.7205 5.62444C19.5757 6.47927 20.2528 7.48453 20.7518 8.64019C21.2506 9.79586 21.5 11.0306 21.5 12.3444C21.5 13.6584 21.2507 14.8935 20.752 16.0497C20.2533 17.2059 19.5766 18.2115 18.7218 19.0667C17.8669 19.9219 16.8617 20.5989 15.706 21.0979C14.5503 21.5968 13.3156 21.8462 12.0017 21.8462Z" fill="#3F434A"/>
</svg>
